<?xml version="1.0" encoding="UTF-8" standalone="no"?>
<!DOCTYPE svg PUBLIC "-//W3C//DTD SVG 1.1//EN" "http://www.w3.org/Graphics/SVG/1.1/DTD/svg11.dtd">
<svg width="100%" height="100%" viewBox="0 0 353 71" version="1.1" xmlns="http://www.w3.org/2000/svg" xmlns:xlink="http://www.w3.org/1999/xlink" xml:space="preserve" xmlns:serif="http://www.serif.com/" style="fill-rule:evenodd;clip-rule:evenodd;">
    <g transform="matrix(1,0,0,1,-42.1776,-92.2936)">
        <g transform="matrix(0.50088,0,0,0.50088,2.26136,77.4214)">
            <g transform="matrix(0.65346,0.664796,-0.746295,0.733569,165.114,-93.8015)">
                <path d="M221.113,149.672C220.162,150.138 216.256,150 216.256,150L196.639,150C192.975,150 190,147.35 190,144.086L190,135.914C190,132.65 192.975,130 196.639,130L233.361,130C235.758,130 237.86,131.134 239.027,132.833C239.168,133.037 239.126,133.348 239.023,133.67C238.958,133.872 238.747,134.069 238.747,134.069L224.933,146.588C224.933,146.588 222.018,149.229 221.113,149.672Z"/>
            </g>
            <circle cx="150" cy="100" r="60" style="fill:rgb(63,109,160);stroke:black;stroke-width:5px;"/>
            <g transform="matrix(1.0625,0,0,1.0625,-9.375,-6.25)">
                <circle cx="150" cy="100" r="40" style="fill:white;stroke:black;stroke-width:3px;"/>
            </g>
            <g transform="matrix(0.9,0,0,0.9,15,10)">
                <circle cx="150" cy="100" r="50" style="fill:none;stroke:black;stroke-width:6.5px;"/>
            </g>
            <circle cx="150" cy="100" r="30" style="fill:url(#_Radial1);"/>
            <circle cx="150" cy="100" r="30" style="fill:none;stroke:black;stroke-width:6px;"/>
            <circle cx="150" cy="100" r="15" style="stroke:black;stroke-width:2px;"/>
            <circle cx="140" cy="90" r="5" style="fill:white;"/>
            <circle cx="160" cy="110" r="3" style="fill:white;"/>
        </g>
        <g transform="matrix(2.15576,0,0,2.15576,123.567,158.685)">
            <g transform="matrix(29.688,0,0,29.688,0,3.55271e-15)">
                <path d="M0.159,-0C0.13,-0 0.106,-0.009 0.089,-0.026C0.071,-0.043 0.062,-0.065 0.062,-0.093L0.062,-0.7L0.2,-0.7L0.2,-0.12L0.58,-0.12L0.58,-0L0.159,-0Z" style="fill-rule:nonzero;"/>
            </g>
            <g transform="matrix(29.688,0,0,29.688,17.1003,3.55271e-15)">
                <path d="M0.252,0.008C0.21,0.008 0.173,0 0.141,-0.016C0.108,-0.031 0.083,-0.053 0.065,-0.082C0.047,-0.11 0.038,-0.142 0.038,-0.179L0.038,-0.308C0.038,-0.347 0.047,-0.382 0.065,-0.412C0.083,-0.442 0.108,-0.465 0.141,-0.482C0.173,-0.499 0.21,-0.507 0.252,-0.507L0.332,-0.507C0.396,-0.507 0.447,-0.489 0.486,-0.453C0.525,-0.417 0.544,-0.369 0.544,-0.309L0.544,-0.203L0.174,-0.203L0.174,-0.179C0.174,-0.157 0.181,-0.139 0.195,-0.126C0.209,-0.113 0.228,-0.106 0.252,-0.106L0.33,-0.106C0.353,-0.106 0.372,-0.111 0.387,-0.122C0.401,-0.132 0.408,-0.145 0.408,-0.162L0.542,-0.162C0.542,-0.129 0.533,-0.099 0.515,-0.073C0.497,-0.047 0.472,-0.027 0.44,-0.013C0.407,0.001 0.37,0.008 0.328,0.008L0.252,0.008ZM0.41,-0.301L0.41,-0.309C0.41,-0.335 0.403,-0.356 0.389,-0.372C0.375,-0.387 0.356,-0.395 0.333,-0.395L0.252,-0.395C0.228,-0.395 0.209,-0.387 0.194,-0.37C0.179,-0.353 0.172,-0.331 0.172,-0.304L0.172,-0.301L0.41,-0.301Z" style="fill-rule:nonzero;"/>
            </g>
            <g transform="matrix(29.688,0,0,29.688,33.7849,3.55271e-15)">
                <path d="M0.187,-0.253L0.004,-0.499L0.156,-0.499L0.266,-0.351L0.376,-0.499L0.528,-0.499L0.345,-0.253L0.534,-0L0.382,-0L0.266,-0.156L0.15,-0L-0.002,-0L0.187,-0.253Z" style="fill-rule:nonzero;"/>
            </g>
            <g transform="matrix(29.688,0,0,29.688,49.5789,3.55271e-15)">
                <path d="M0.144,-0.546C0.118,-0.546 0.097,-0.554 0.082,-0.569C0.066,-0.584 0.058,-0.603 0.058,-0.628C0.058,-0.653 0.066,-0.673 0.082,-0.688C0.097,-0.703 0.118,-0.71 0.144,-0.71C0.17,-0.71 0.191,-0.703 0.207,-0.688C0.222,-0.673 0.23,-0.653 0.23,-0.628C0.23,-0.603 0.222,-0.584 0.207,-0.569C0.191,-0.554 0.17,-0.546 0.144,-0.546ZM0.076,-0.499L0.212,-0.499L0.212,-0L0.076,-0L0.076,-0.499Z" style="fill-rule:nonzero;"/>
            </g>
            <g transform="matrix(29.688,0,0,29.688,58.129,3.55271e-15)">
                <path d="M0.159,-0C0.13,-0 0.106,-0.009 0.089,-0.026C0.071,-0.043 0.062,-0.065 0.062,-0.093L0.062,-0.7L0.2,-0.7L0.2,-0.12L0.58,-0.12L0.58,-0L0.159,-0Z" style="fill-rule:nonzero;"/>
            </g>
            <g transform="matrix(29.688,0,0,29.688,75.2293,3.55271e-15)">
                <path d="M0.252,0.008C0.21,0.008 0.173,0 0.141,-0.016C0.108,-0.031 0.083,-0.053 0.065,-0.082C0.047,-0.11 0.038,-0.142 0.038,-0.179L0.038,-0.308C0.038,-0.347 0.047,-0.382 0.065,-0.412C0.083,-0.442 0.108,-0.465 0.141,-0.482C0.173,-0.499 0.21,-0.507 0.252,-0.507L0.332,-0.507C0.396,-0.507 0.447,-0.489 0.486,-0.453C0.525,-0.417 0.544,-0.369 0.544,-0.309L0.544,-0.203L0.174,-0.203L0.174,-0.179C0.174,-0.157 0.181,-0.139 0.195,-0.126C0.209,-0.113 0.228,-0.106 0.252,-0.106L0.33,-0.106C0.353,-0.106 0.372,-0.111 0.387,-0.122C0.401,-0.132 0.408,-0.145 0.408,-0.162L0.542,-0.162C0.542,-0.129 0.533,-0.099 0.515,-0.073C0.497,-0.047 0.472,-0.027 0.44,-0.013C0.407,0.001 0.37,0.008 0.328,0.008L0.252,0.008ZM0.41,-0.301L0.41,-0.309C0.41,-0.335 0.403,-0.356 0.389,-0.372C0.375,-0.387 0.356,-0.395 0.333,-0.395L0.252,-0.395C0.228,-0.395 0.209,-0.387 0.194,-0.37C0.179,-0.353 0.172,-0.331 0.172,-0.304L0.172,-0.301L0.41,-0.301Z" style="fill-rule:nonzero;"/>
            </g>
            <g transform="matrix(29.688,0,0,29.688,92.389,3.55271e-15)">
                <path d="M0.058,-0.499L0.184,-0.499L0.184,-0.439C0.199,-0.46 0.218,-0.476 0.241,-0.489C0.264,-0.501 0.288,-0.507 0.311,-0.507L0.371,-0.507C0.424,-0.507 0.467,-0.49 0.5,-0.457C0.532,-0.424 0.548,-0.38 0.548,-0.325L0.548,-0L0.412,-0L0.412,-0.32C0.412,-0.341 0.407,-0.357 0.396,-0.37C0.385,-0.383 0.37,-0.389 0.353,-0.389L0.293,-0.389C0.27,-0.389 0.249,-0.381 0.231,-0.364C0.212,-0.347 0.2,-0.324 0.194,-0.297L0.194,-0L0.058,-0L0.058,-0.499Z" style="fill-rule:nonzero;"/>
            </g>
            <g transform="matrix(29.688,0,0,29.688,110.202,3.55271e-15)">
                <path d="M0.235,0.008C0.174,0.008 0.126,-0.008 0.089,-0.04C0.052,-0.072 0.034,-0.114 0.034,-0.166L0.168,-0.166C0.168,-0.148 0.174,-0.134 0.187,-0.123C0.199,-0.112 0.215,-0.106 0.235,-0.106L0.325,-0.106C0.365,-0.106 0.385,-0.117 0.385,-0.139L0.385,-0.156C0.385,-0.163 0.382,-0.169 0.375,-0.175C0.368,-0.18 0.359,-0.184 0.348,-0.186L0.175,-0.216C0.134,-0.223 0.102,-0.237 0.079,-0.26C0.055,-0.282 0.043,-0.308 0.043,-0.338L0.043,-0.371C0.043,-0.414 0.061,-0.447 0.096,-0.471C0.13,-0.495 0.179,-0.507 0.242,-0.507L0.32,-0.507C0.376,-0.507 0.421,-0.492 0.456,-0.463C0.49,-0.433 0.507,-0.394 0.507,-0.345L0.373,-0.345C0.373,-0.36 0.368,-0.371 0.359,-0.38C0.349,-0.389 0.336,-0.393 0.32,-0.393L0.244,-0.393C0.201,-0.393 0.179,-0.383 0.179,-0.363L0.179,-0.347C0.179,-0.34 0.182,-0.334 0.188,-0.329C0.193,-0.324 0.201,-0.32 0.212,-0.318L0.394,-0.285C0.432,-0.278 0.463,-0.264 0.486,-0.243C0.509,-0.221 0.521,-0.196 0.521,-0.169L0.521,-0.133C0.521,-0.09 0.503,-0.055 0.468,-0.03C0.432,-0.005 0.384,0.008 0.325,0.008L0.235,0.008Z" style="fill-rule:nonzero;"/>
            </g>
        </g>
    </g>
    <defs>
        <radialGradient id="_Radial1" cx="0" cy="0" r="1" gradientUnits="userSpaceOnUse" gradientTransform="matrix(30,0,0,30,150,100)"><stop offset="0" style="stop-color:white;stop-opacity:1"/><stop offset="1" style="stop-color:rgb(25,102,186);stop-opacity:1"/></radialGradient>
    </defs>
</svg>
