<?xml version="1.0" encoding="UTF-8" standalone="no"?>
<!DOCTYPE svg PUBLIC "-//W3C//DTD SVG 1.1//EN" "http://www.w3.org/Graphics/SVG/1.1/DTD/svg11.dtd">
<svg width="100%" height="100%" viewBox="0 0 72 71" version="1.1" xmlns="http://www.w3.org/2000/svg" xmlns:xlink="http://www.w3.org/1999/xlink" xml:space="preserve" xmlns:serif="http://www.serif.com/" style="fill-rule:evenodd;clip-rule:evenodd;">
    <g transform="matrix(1,0,0,1,-42.1776,-92.2936)">
        <g transform="matrix(0.50088,0,0,0.50088,2.26136,77.4214)">
            <g transform="matrix(0.65346,0.664796,-0.746295,0.733569,165.114,-93.8015)">
                <path d="M221.113,149.672C220.162,150.138 216.256,150 216.256,150L196.639,150C192.975,150 190,147.35 190,144.086L190,135.914C190,132.65 192.975,130 196.639,130L233.361,130C235.758,130 237.86,131.134 239.027,132.833C239.168,133.037 239.126,133.348 239.023,133.67C238.958,133.872 238.747,134.069 238.747,134.069L224.933,146.588C224.933,146.588 222.018,149.229 221.113,149.672Z"/>
            </g>
            <circle cx="150" cy="100" r="60" style="fill:rgb(63,109,160);stroke:black;stroke-width:5px;"/>
            <g transform="matrix(1.0625,0,0,1.0625,-9.375,-6.25)">
                <circle cx="150" cy="100" r="40" style="fill:white;stroke:black;stroke-width:3px;"/>
            </g>
            <g transform="matrix(0.9,0,0,0.9,15,10)">
                <circle cx="150" cy="100" r="50" style="fill:none;stroke:black;stroke-width:6.5px;"/>
            </g>
            <circle cx="150" cy="100" r="30" style="fill:url(#_Radial1);"/>
            <circle cx="150" cy="100" r="30" style="fill:none;stroke:black;stroke-width:6px;"/>
            <circle cx="150" cy="100" r="15" style="stroke:black;stroke-width:2px;"/>
            <circle cx="140" cy="90" r="5" style="fill:white;"/>
            <circle cx="160" cy="110" r="3" style="fill:white;"/>
        </g>
    </g>
    <defs>
        <radialGradient id="_Radial1" cx="0" cy="0" r="1" gradientUnits="userSpaceOnUse" gradientTransform="matrix(30,0,0,30,150,100)"><stop offset="0" style="stop-color:white;stop-opacity:1"/><stop offset="1" style="stop-color:rgb(25,102,186);stop-opacity:1"/></radialGradient>
    </defs>
</svg>
